#Comment line ignore any data following # character 
#Hierarchical Translation and Rotation (.htr) file 
[Header]	
#Header keywords are followed by a single value 
FileType HTR		#Single word string
DataType HTRS		#Translation followed by rotation and scale data
FileVersion 1		#integer
NumSegments 84		#integer
NumFrames 2		#integer
DataFrameRate 30		#integer, data frame rate in this file
EulerRotationOrder ZYX
CalibrationUnits mm
RotationUnits Degrees
GlobalAxisofGravity Y
BoneLengthAxis Y
ScaleFactor 1.00
[SegmentNames&Hierarchy]
#CHILD	PARENT
MASTER GLOBAL
root MASTER
chest root
L_mid_tent01 root
R_mid_tent01 root
spine01 root
Bip01_Neck chest
L_humerus chest
R_humerus chest
weapon_bone chest
Bip01_Head Bip01_Neck
eye_left_bone Bip01_Head
eye_right_bone Bip01_Head
L_forearm L_humerus
L_front_hand L_forearm
L_weapon_bone L_forearm
L_front_hand01_01 L_front_hand
L_front_hand02_01 L_front_hand
L_front_hand03_01 L_front_hand
L_front_hand01_02 L_front_hand01_01
L_front_hand02_02 L_front_hand02_01
L_front_hand03_02 L_front_hand03_01
R_forearm R_humerus
R_front_hand R_forearm
R_weapon_bone R_forearm
R_front_hand01_01 R_front_hand
R_front_hand02_01 R_front_hand
R_front_hand03_01 R_front_hand
R_front_hand01_02 R_front_hand01_01
R_front_hand02_02 R_front_hand02_01
R_front_hand03_02 R_front_hand03_01
null_rope01_connect L_mid_tent01
Rope1_Seg01 null_rope01_connect
Rope1_Seg02 Rope1_Seg01
Rope1_Seg03 Rope1_Seg02
Rope1_Seg04 Rope1_Seg03
Rope1_Seg05 Rope1_Seg04
Rope1_Seg06 Rope1_Seg05
Rope1_Seg07 Rope1_Seg06
Rope1_Seg09 Rope1_Seg07
L_mid_hand01 Rope1_Seg09
L_mid_hand02 Rope1_Seg09
L_mid_hand03 Rope1_Seg09
null_rope02_connect R_mid_tent01
Rope2_Seg01 null_rope02_connect
Rope2_Seg02 Rope2_Seg01
Rope2_Seg03 Rope2_Seg02
Rope2_Seg04 Rope2_Seg03
Rope2_Seg05 Rope2_Seg04
Rope2_Seg06 Rope2_Seg05
Rope2_Seg07 Rope2_Seg06
Rope2_Seg09 Rope2_Seg07
R_mid_hand01 Rope2_Seg09
R_mid_hand02 Rope2_Seg09
R_mid_hand03 Rope2_Seg09
spine02 spine01
spine03 spine02
pelvis spine03
null_rope03_connect pelvis
null_rope04_connect pelvis
Rope3_Seg01 null_rope03_connect
Rope3_Seg02 Rope3_Seg01
Rope3_Seg03 Rope3_Seg02
Rope3_Seg04 Rope3_Seg03
Rope3_Seg05 Rope3_Seg04
Rope3_Seg06 Rope3_Seg05
Rope3_Seg07 Rope3_Seg06
Rope3_Seg08 Rope3_Seg07
Rope3_Seg09 Rope3_Seg08
R_rear_hand01 Rope3_Seg09
R_rear_hand02 Rope3_Seg09
R_rear_hand03 Rope3_Seg09
Rope4_Seg01 null_rope04_connect
Rope4_Seg02 Rope4_Seg01
Rope4_Seg03 Rope4_Seg02
Rope4_Seg04 Rope4_Seg03
Rope4_Seg05 Rope4_Seg04
Rope4_Seg06 Rope4_Seg05
Rope4_Seg07 Rope4_Seg06
Rope4_Seg08 Rope4_Seg07
Rope4_Seg09 Rope4_Seg08
L_rear_hand01 Rope4_Seg09
L_rear_hand02 Rope4_Seg09
L_rear_hand03 Rope4_Seg09
[BasePosition]
#SegmentName Tx, Ty, Tz, Rx, Ry, Rz, BoneLength
MASTER 0.000000 0.000000 0.000000 -90.000000 0.000000 0.000000 10.000000 
root 0.000000 0.000000 0.000000 0.000000 0.000000 0.000000 10.000000 
chest 0.000000 0.000000 0.000000 0.000000 0.000000 0.000000 10.000000 
L_mid_tent01 0.000000 0.000000 0.000000 0.000000 0.000000 0.000000 10.000000 
R_mid_tent01 0.000000 0.000000 0.000000 0.000000 0.000000 0.000000 10.000000 
spine01 0.000000 0.000000 0.000000 0.000000 0.000000 0.000000 10.000000 
Bip01_Neck 0.000000 0.000000 0.000000 0.000000 0.000000 0.000000 10.000000 
L_humerus 0.000000 0.000000 0.000000 0.000000 0.000000 0.000000 10.000000 
R_humerus 0.000000 0.000000 0.000000 0.000000 0.000000 0.000000 10.000000 
weapon_bone 0.000000 0.000000 0.000000 0.000000 0.000000 0.000000 10.000000 
Bip01_Head 0.000000 0.000000 0.000000 0.000000 0.000000 0.000000 10.000000 
eye_left_bone 0.000000 0.000000 0.000000 0.000000 0.000000 0.000000 10.000000 
eye_right_bone 0.000000 0.000000 0.000000 0.000000 0.000000 0.000000 10.000000 
L_forearm 0.000000 0.000000 0.000000 0.000000 0.000000 0.000000 10.000000 
L_front_hand 0.000000 0.000000 0.000000 0.000000 0.000000 0.000000 10.000000 
L_weapon_bone 0.000000 0.000000 0.000000 0.000000 0.000000 0.000000 10.000000 
L_front_hand01_01 0.000000 0.000000 0.000000 0.000000 0.000000 0.000000 10.000000 
L_front_hand02_01 0.000000 0.000000 0.000000 0.000000 0.000000 0.000000 10.000000 
L_front_hand03_01 0.000000 0.000000 0.000000 0.000000 0.000000 0.000000 10.000000 
L_front_hand01_02 0.000000 0.000000 0.000000 0.000000 0.000000 0.000000 10.000000 
L_front_hand02_02 0.000000 0.000000 0.000000 0.000000 0.000000 0.000000 10.000000 
L_front_hand03_02 0.000000 0.000000 0.000000 0.000000 0.000000 0.000000 10.000000 
R_forearm 0.000000 0.000000 0.000000 0.000000 0.000000 0.000000 10.000000 
R_front_hand 0.000000 0.000000 0.000000 0.000000 0.000000 0.000000 10.000000 
R_weapon_bone 0.000000 0.000000 0.000000 0.000000 0.000000 0.000000 10.000000 
R_front_hand01_01 0.000000 0.000000 0.000000 0.000000 0.000000 0.000000 10.000000 
R_front_hand02_01 0.000000 0.000000 0.000000 0.000000 0.000000 0.000000 10.000000 
R_front_hand03_01 0.000000 0.000000 0.000000 0.000000 0.000000 0.000000 10.000000 
R_front_hand01_02 0.000000 0.000000 0.000000 0.000000 0.000000 0.000000 10.000000 
R_front_hand02_02 0.000000 0.000000 0.000000 0.000000 0.000000 0.000000 10.000000 
R_front_hand03_02 0.000000 0.000000 0.000000 0.000000 0.000000 0.000000 10.000000 
null_rope01_connect 0.000000 0.000000 0.000000 0.000000 0.000000 0.000000 10.000000 
Rope1_Seg01 0.000000 0.000000 0.000000 0.000000 0.000000 0.000000 10.000000 
Rope1_Seg02 0.000000 0.000000 0.000000 0.000000 0.000000 0.000000 10.000000 
Rope1_Seg03 0.000000 0.000000 0.000000 0.000000 0.000000 0.000000 10.000000 
Rope1_Seg04 0.000000 0.000000 0.000000 0.000000 0.000000 0.000000 10.000000 
Rope1_Seg05 0.000000 0.000000 0.000000 0.000000 0.000000 0.000000 10.000000 
Rope1_Seg06 0.000000 0.000000 0.000000 0.000000 0.000000 0.000000 10.000000 
Rope1_Seg07 0.000000 0.000000 0.000000 0.000000 0.000000 0.000000 10.000000 
Rope1_Seg09 0.000000 0.000000 0.000000 0.000000 0.000000 0.000000 10.000000 
L_mid_hand01 0.000000 0.000000 0.000000 0.000000 0.000000 0.000000 10.000000 
L_mid_hand02 0.000000 0.000000 0.000000 0.000000 0.000000 0.000000 10.000000 
L_mid_hand03 0.000000 0.000000 0.000000 0.000000 0.000000 0.000000 10.000000 
null_rope02_connect 0.000000 0.000000 0.000000 0.000000 0.000000 0.000000 10.000000 
Rope2_Seg01 0.000000 0.000000 0.000000 0.000000 0.000000 0.000000 10.000000 
Rope2_Seg02 0.000000 0.000000 0.000000 0.000000 0.000000 0.000000 10.000000 
Rope2_Seg03 0.000000 0.000000 0.000000 0.000000 0.000000 0.000000 10.000000 
Rope2_Seg04 0.000000 0.000000 0.000000 0.000000 0.000000 0.000000 10.000000 
Rope2_Seg05 0.000000 0.000000 0.000000 0.000000 0.000000 0.000000 10.000000 
Rope2_Seg06 0.000000 0.000000 0.000000 0.000000 0.000000 0.000000 10.000000 
Rope2_Seg07 0.000000 0.000000 0.000000 0.000000 0.000000 0.000000 10.000000 
Rope2_Seg09 0.000000 0.000000 0.000000 0.000000 0.000000 0.000000 10.000000 
R_mid_hand01 0.000000 0.000000 0.000000 0.000000 0.000000 0.000000 10.000000 
R_mid_hand02 0.000000 0.000000 0.000000 0.000000 0.000000 0.000000 10.000000 
R_mid_hand03 0.000000 0.000000 0.000000 0.000000 0.000000 0.000000 10.000000 
spine02 0.000000 0.000000 0.000000 0.000000 0.000000 0.000000 10.000000 
spine03 0.000000 0.000000 0.000000 0.000000 0.000000 0.000000 10.000000 
pelvis 0.000000 0.000000 0.000000 0.000000 0.000000 0.000000 10.000000 
null_rope03_connect 0.000000 0.000000 0.000000 0.000000 0.000000 0.000000 10.000000 
null_rope04_connect 0.000000 0.000000 0.000000 0.000000 0.000000 0.000000 10.000000 
Rope3_Seg01 0.000000 0.000000 0.000000 0.000000 0.000000 0.000000 10.000000 
Rope3_Seg02 0.000000 0.000000 0.000000 0.000000 0.000000 0.000000 10.000000 
Rope3_Seg03 0.000000 0.000000 0.000000 0.000000 0.000000 0.000000 10.000000 
Rope3_Seg04 0.000000 0.000000 0.000000 0.000000 0.000000 0.000000 10.000000 
Rope3_Seg05 0.000000 0.000000 0.000000 0.000000 0.000000 0.000000 10.000000 
Rope3_Seg06 0.000000 0.000000 0.000000 0.000000 0.000000 0.000000 10.000000 
Rope3_Seg07 0.000000 0.000000 0.000000 0.000000 0.000000 0.000000 10.000000 
Rope3_Seg08 0.000000 0.000000 0.000000 0.000000 0.000000 0.000000 10.000000 
Rope3_Seg09 0.000000 0.000000 0.000000 0.000000 0.000000 0.000000 10.000000 
R_rear_hand01 0.000000 0.000000 0.000000 0.000000 0.000000 0.000000 10.000000 
R_rear_hand02 0.000000 0.000000 0.000000 0.000000 0.000000 0.000000 10.000000 
R_rear_hand03 0.000000 0.000000 0.000000 0.000000 0.000000 0.000000 10.000000 
Rope4_Seg01 0.000000 0.000000 0.000000 0.000000 0.000000 0.000000 10.000000 
Rope4_Seg02 0.000000 0.000000 0.000000 0.000000 0.000000 0.000000 10.000000 
Rope4_Seg03 0.000000 0.000000 0.000000 0.000000 0.000000 0.000000 10.000000 
Rope4_Seg04 0.000000 0.000000 0.000000 0.000000 0.000000 0.000000 10.000000 
Rope4_Seg05 0.000000 0.000000 0.000000 0.000000 0.000000 0.000000 10.000000 
Rope4_Seg06 0.000000 0.000000 0.000000 0.000000 0.000000 0.000000 10.000000 
Rope4_Seg07 0.000000 0.000000 0.000000 0.000000 0.000000 0.000000 10.000000 
Rope4_Seg08 0.000000 0.000000 0.000000 0.000000 0.000000 0.000000 10.000000 
Rope4_Seg09 0.000000 0.000000 0.000000 0.000000 0.000000 0.000000 10.000000 
L_rear_hand01 0.000000 0.000000 0.000000 0.000000 0.000000 0.000000 10.000000 
L_rear_hand02 0.000000 0.000000 0.000000 0.000000 0.000000 0.000000 10.000000 
L_rear_hand03 0.000000 0.000000 0.000000 0.000000 0.000000 0.000000 10.000000 
#Beginning of Data. Separated by tabs
#Fr	Tx	Ty	Tz	Rx	Ry	Rz	SF
[MASTER]
47 0.000000 0.000000 0.000000 0.001660 0.001660 0.001660 0.000000
48 0.000000 0.000000 0.000000 0.001660 0.001660 0.001660 0.000000
[root]
47 -16.502291 -62.822117 1609.855957 -91.629730 -27.676092 -90.148125 1611.165894
48 -16.502291 -62.822117 1584.765137 -91.629700 -27.676081 -90.148109 1586.095703
[chest]
47 -84.512650 -34.090519 0.000000 -2.251259 0.461353 179.395630 91.129311
48 -84.512650 -34.090519 0.000000 -2.401903 0.487219 177.831161 91.129311
[L_mid_tent01]
47 27.299603 22.177526 -249.918015 5.413868 37.903748 83.311996 252.380905
48 27.299599 22.177536 -249.918015 5.028647 37.504261 82.828659 252.380905
[R_mid_tent01]
47 23.228794 24.509907 226.238495 157.819275 -48.669796 90.701874 228.744751
48 23.228794 24.509907 226.238495 158.466980 -48.290543 90.008392 228.744751
[spine01]
47 -0.361383 -0.195265 0.000000 0.001880 0.001406 16.401207 0.410763
48 -0.361383 -0.195265 0.000000 0.001878 0.001409 16.242290 0.410763
[Bip01_Neck]
47 165.484543 71.581718 0.000119 175.896118 1.177290 24.871183 180.302734
48 165.484543 71.581718 0.000119 175.896118 1.177290 24.871183 180.302734
[L_humerus]
47 -13.983130 -135.272980 -120.471481 170.116272 28.842611 -116.104431 181.680161
48 -13.983130 -135.272980 -120.471481 167.369263 33.547863 -115.922234 181.680161
[R_humerus]
47 -13.983309 -135.273102 125.287651 -172.657364 -27.242893 -111.292152 184.909012
48 -13.983309 -135.273102 125.287651 -171.527161 -33.825508 -108.825676 184.909012
[weapon_bone]
47 235.964890 -300.705902 0.000000 0.000000 -89.951546 -128.212341 382.234833
48 235.964890 -300.705902 0.000000 0.000000 -89.951546 -128.212341 382.234833
[Bip01_Head]
47 157.086243 234.525223 20.211273 0.996775 3.894753 -26.152863 282.995850
48 165.478439 242.010162 20.736723 0.918149 3.911418 -27.687172 293.908203
[eye_left_bone]
47 -24.626970 125.451866 -64.772606 0.000000 -90.000000 -99.840431 143.318359
48 -24.626970 125.451866 -64.772606 0.000000 -90.000000 -99.840431 143.318359
[eye_right_bone]
47 -24.626970 125.451866 64.327362 0.000000 -89.960434 80.159386 143.117676
48 -24.626970 125.451866 64.327362 0.000000 -89.960434 80.159386 143.117676
[L_forearm]
47 322.776093 0.000000 -0.000119 0.000353 0.002321 -72.708809 322.776093
48 322.776093 0.000000 -0.000119 0.000323 0.002325 -74.168854 322.776093
[L_front_hand]
47 241.149185 -0.042021 -3.300071 -179.334930 -2.169331 -8.477523 241.171753
48 241.149185 -0.042021 -3.300071 -179.199844 -2.125357 -12.075711 241.171753
[L_weapon_bone]
47 156.183838 0.000000 0.000000 0.001694 0.001624 2.420258 156.183838
48 156.183838 0.000000 0.000000 0.001684 0.001635 1.712914 156.183838
[L_front_hand01_01]
47 86.095154 20.947098 -0.655860 -0.366594 -0.477154 75.385574 88.609184
48 86.095154 20.947098 -0.655860 -0.366594 -0.477154 75.385574 88.609184
[L_front_hand02_01]
47 86.935165 -11.437475 24.513514 154.403519 -59.888931 -61.371990 91.046425
48 86.935165 -11.437475 24.513514 154.403519 -59.888931 -61.371990 91.046425
[L_front_hand03_01]
47 86.637497 -14.123976 -20.424902 -153.913849 58.118122 -62.702866 90.126129
48 86.637497 -14.123976 -20.424902 -153.913849 58.118122 -62.702866 90.126129
[L_front_hand01_02]
47 71.020905 -0.000179 0.000030 0.001534 0.001777 -8.378850 71.020905
48 71.020905 -0.000179 0.000030 0.001534 0.001777 -8.378850 71.020905
[L_front_hand02_02]
47 71.020927 -0.000119 0.000060 0.001534 0.001777 -8.378850 71.020927
48 71.020927 -0.000119 0.000060 0.001534 0.001777 -8.378850 71.020927
[L_front_hand03_02]
47 71.020905 -0.000060 0.000060 0.001534 0.001777 -8.378850 71.020905
48 71.020905 -0.000060 0.000060 0.001534 0.001777 -8.378850 71.020905
[R_forearm]
47 322.776428 -0.000060 0.000030 0.179762 -0.111809 -59.507820 322.776428
48 322.776428 -0.000060 0.000030 0.178758 -0.113423 -58.479092 322.776428
[R_front_hand]
47 238.847015 -0.006795 2.210259 -1.113368 1.321925 -28.875427 238.857239
48 238.847015 -0.006795 2.210259 -1.197740 1.245922 -32.641838 238.857239
[R_weapon_bone]
47 155.664093 0.002503 -0.000030 0.003472 0.001222 -92.381439 155.664078
48 155.664093 0.002503 -0.000030 0.003476 0.001209 -91.969521 155.664078
[R_front_hand01_01]
47 87.624611 14.231146 22.918642 -154.633499 -59.950619 61.746044 91.683487
48 87.624611 14.231146 22.918642 -154.633499 -59.950619 61.746044 91.683487
[R_front_hand02_01]
47 89.356956 14.367283 -19.491137 154.602661 58.302849 63.744389 92.579636
48 89.356956 14.367283 -19.491137 154.602661 58.302849 63.744389 92.579636
[R_front_hand03_01]
47 87.286232 -22.307278 -0.143439 0.162155 -0.423168 -75.767921 90.091743
48 87.286232 -22.307278 -0.143439 0.162155 -0.423168 -75.767921 90.091743
[R_front_hand01_02]
47 71.020905 0.000060 0.000119 0.001777 0.001534 8.377220 71.020905
48 71.020905 0.000060 0.000119 0.001777 0.001534 8.377220 71.020905
[R_front_hand02_02]
47 71.020844 -0.000030 -0.000119 0.001777 0.001534 8.377220 71.020836
48 71.020844 -0.000030 -0.000119 0.001777 0.001534 8.377220 71.020836
[R_front_hand03_02]
47 71.020905 0.000000 0.000030 0.001777 0.001534 8.377220 71.020905
48 71.020905 0.000000 0.000030 0.001777 0.001534 8.377220 71.020905
[null_rope01_connect]
47 328.732483 0.000000 -0.000238 -137.257996 -50.099163 173.594376 328.732483
48 328.732483 0.000000 -0.000238 -137.323608 -50.538269 173.988968 328.732483
[Rope1_Seg01]
47 0.000000 0.000000 0.000000 108.138969 45.612408 131.089828 0.000000
48 0.000000 0.000000 0.000000 108.067299 45.016159 131.046707 0.000000
[Rope1_Seg02]
47 139.999863 -0.000179 0.000000 -0.016455 -7.289409 2.307285 139.999863
48 139.999863 -0.000179 0.000000 -0.089936 -7.650074 2.704399 139.999863
[Rope1_Seg03]
47 139.999924 0.000060 -0.000060 -0.994016 -11.348048 2.615577 139.999924
48 139.999924 0.000060 -0.000060 -1.203407 -11.868065 2.931594 139.999924
[Rope1_Seg04]
47 139.999924 -0.000060 -0.000119 -4.841290 -19.650835 1.378208 139.999924
48 139.999924 -0.000060 -0.000119 -5.415699 -19.774433 3.323695 139.999924
[Rope1_Seg05]
47 139.999832 0.000119 -0.000060 0.409391 -13.153728 20.111574 139.999832
48 139.999832 0.000119 -0.000060 1.194868 -12.048218 19.148760 139.999832
[Rope1_Seg06]
47 139.999954 0.000119 -0.000060 4.991245 -3.887333 9.741026 139.999954
48 139.999954 0.000119 -0.000060 4.112185 -3.723785 8.501551 139.999954
[Rope1_Seg07]
47 139.999985 0.000060 0.000000 2.278494 -2.127986 4.279530 139.999985
48 139.999985 0.000060 0.000000 1.929548 -2.089002 3.934923 139.999985
[Rope1_Seg09]
47 121.602913 0.000119 -0.000089 -89.793175 -1.359789 0.847147 121.602913
48 121.602913 0.000119 -0.000089 -89.793175 -1.359789 0.847147 121.602913
[L_mid_hand01]
47 103.859421 1.038730 8.195221 130.544373 -67.584534 -38.866943 104.187431
48 103.859421 1.038730 8.195221 130.544189 -67.584442 -38.866749 104.187431
[L_mid_hand02]
47 105.572853 -4.139662 -10.864139 -168.923172 43.409321 -73.498909 106.211075
48 105.572853 -4.139662 -10.864139 -168.923065 43.409290 -73.498741 106.211075
[L_mid_hand03]
47 104.641464 17.579376 -3.913581 -6.012629 17.808178 74.893669 106.179977
48 104.641464 17.579376 -3.913581 -6.012664 17.808161 74.893547 106.179977
[null_rope02_connect]
47 328.732849 0.000179 -0.000119 -123.985245 39.255131 19.238604 328.732849
48 328.732849 0.000179 -0.000119 -123.923714 39.790073 18.993555 328.732849
[Rope2_Seg01]
47 0.000076 0.000112 0.000153 -53.590382 53.842342 48.457481 0.000204
48 0.000076 0.000112 0.000153 -52.692421 51.470779 48.872417 0.000204
[Rope2_Seg02]
47 139.999741 -0.000060 -0.000119 0.303445 -5.794454 0.788554 139.999756
48 139.999741 -0.000060 -0.000119 0.190913 -5.943153 1.219975 139.999756
[Rope2_Seg03]
47 140.000107 0.000030 0.000000 0.136552 -7.929245 1.058108 140.000107
48 140.000107 0.000030 0.000000 0.013111 -7.517163 1.636471 140.000107
[Rope2_Seg04]
47 139.999802 0.000000 -0.000060 -0.624412 -14.031614 1.847620 139.999802
48 139.999802 0.000000 -0.000060 -0.803039 -14.631321 3.236658 139.999802
[Rope2_Seg05]
47 139.999985 -0.000060 0.000119 -4.393526 -25.387884 5.000387 139.999985
48 139.999985 -0.000060 0.000119 -4.406132 -24.307669 4.617042 139.999985
[Rope2_Seg06]
47 139.999893 -0.000030 -0.000119 -2.361477 -8.210053 1.073796 139.999893
48 139.999893 -0.000030 -0.000119 -2.329825 -7.697874 0.907075 139.999893
[Rope2_Seg07]
47 139.999893 0.000060 -0.000060 -1.536389 -3.968991 0.327100 139.999893
48 139.999893 0.000060 -0.000060 -1.504298 -3.824574 0.306755 139.999893
[Rope2_Seg09]
47 121.338966 0.000089 -0.000060 33.793236 -1.359788 -0.847141 121.338966
48 121.338966 0.000089 -0.000060 33.793236 -1.359788 -0.847141 121.338966
[R_mid_hand01]
47 104.680779 11.144459 -10.335981 -16.212063 45.237247 70.462852 105.778534
48 104.680779 11.144459 -10.335981 -16.212177 45.237209 70.462692 105.778534
[R_mid_hand02]
47 104.070427 2.443552 8.231699 49.067368 -67.749771 39.286453 104.424065
48 104.070427 2.443552 8.231699 49.067554 -67.749702 39.286259 104.424065
[R_mid_hand03]
47 106.028137 -11.221827 -5.996406 -177.101105 15.551026 -76.585571 106.788818
48 106.028137 -11.221827 -5.996406 -177.101074 15.551023 -76.585457 106.788818
[spine02]
47 129.756927 0.001550 0.000119 -0.499781 -4.036911 -0.797324 129.756927
48 129.756927 0.001550 0.000119 -0.460366 -4.040603 -1.352971 129.756927
[spine03]
47 78.690605 0.073903 -4.148840 0.126802 4.354271 -7.918626 78.799934
48 78.677788 0.076133 -4.273833 0.175953 4.345211 -7.291772 78.793816
[pelvis]
47 169.435242 0.051022 0.000000 -0.889297 -0.650218 0.125396 169.435257
48 169.435242 0.051022 0.000000 -0.734127 -0.571877 -0.228796 169.435257
[null_rope03_connect]
47 -1.257226 -2.466202 137.391083 -160.225571 -87.637024 -89.895714 137.418976
48 -1.257226 -2.466202 137.391083 -158.241638 -87.836441 -91.424225 137.418976
[null_rope04_connect]
47 -1.259640 -2.480268 -137.844437 -160.225571 -87.637024 -89.895714 137.872513
48 -1.259640 -2.480268 -137.844437 -158.241638 -87.836441 -91.424225 137.872513
[Rope3_Seg01]
47 0.000072 0.000018 0.000000 -141.777359 -38.437649 -64.556183 0.000074
48 0.000073 0.000015 0.000000 -141.969193 -38.778503 -64.445518 0.000074
[Rope3_Seg02]
47 139.999924 -0.000119 0.000060 -21.898262 9.537702 -35.632053 139.999924
48 139.999924 -0.000119 0.000060 -21.558931 9.151352 -35.341522 139.999924
[Rope3_Seg03]
47 139.999924 -0.000119 0.000119 -55.842930 30.495665 -44.177513 139.999924
48 139.999924 -0.000119 0.000119 -56.615395 30.120380 -44.619598 139.999924
[Rope3_Seg04]
47 139.999924 0.000119 0.000000 -11.869530 18.961338 -5.571748 139.999924
48 139.999924 0.000119 0.000000 -13.767340 21.163319 -6.925274 139.999924
[Rope3_Seg05]
47 139.999924 -0.000238 0.000060 -13.562248 27.963768 -10.109491 139.999924
48 139.999924 -0.000238 0.000060 -13.521396 29.872505 -9.718355 139.999924
[Rope3_Seg06]
47 139.999893 -0.000119 -0.000060 -4.288244 23.413586 -3.434738 139.999893
48 139.999893 -0.000119 -0.000060 -2.708070 19.076376 -1.797826 139.999893
[Rope3_Seg07]
47 139.999771 0.000060 -0.000119 0.120125 9.354766 -0.311045 139.999771
48 139.999771 0.000060 -0.000119 0.202712 7.950970 -0.103225 139.999771
[Rope3_Seg08]
47 139.999985 -0.000060 0.000000 0.613298 4.771649 -0.170787 139.999985
48 139.999985 -0.000060 0.000000 0.578281 4.147421 -0.066481 139.999985
[Rope3_Seg09]
47 90.185997 -0.000179 -0.000060 89.793228 -1.359877 -0.847183 90.185997
48 90.185997 -0.000179 -0.000060 89.793228 -1.359877 -0.847183 90.185997
[R_rear_hand01]
47 103.366196 -6.073594 -10.757982 -177.082428 24.500723 -72.395386 104.101845
48 103.366196 -6.073594 -10.757982 -177.714142 24.565954 -73.910820 104.101845
[R_rear_hand02]
47 100.509819 12.039542 -7.992327 -13.877093 36.549034 70.490479 101.543350
48 100.509819 12.039542 -7.992327 -12.874912 36.868462 72.167076 101.543350
[R_rear_hand03]
47 101.539970 5.215704 5.435467 72.732544 -70.500656 20.192110 101.819031
48 101.539970 5.215704 5.435467 71.484718 -71.816528 21.513683 101.819031
[Rope4_Seg01]
47 0.000000 -0.000092 -0.000018 46.943970 -19.740486 -100.403679 0.000094
48 0.000000 -0.000096 -0.000015 47.204350 -19.814093 -101.201416 0.000097
[Rope4_Seg02]
47 139.999985 0.000060 0.000119 10.770826 -53.439323 16.738289 139.999985
48 139.999985 0.000060 0.000119 12.383256 -54.883366 16.615341 139.999985
[Rope4_Seg03]
47 139.999924 0.000000 -0.000238 40.911366 -41.091984 35.967709 139.999924
48 139.999924 0.000000 -0.000238 41.667698 -38.757339 34.311199 139.999924
[Rope4_Seg04]
47 139.999985 0.000000 0.000119 9.724586 -1.580223 12.097010 139.999985
48 139.999985 0.000000 0.000119 11.024515 -1.875334 13.528992 139.999985
[Rope4_Seg05]
47 139.999802 -0.000060 -0.000119 11.958492 -1.191172 20.623205 139.999802
48 139.999802 -0.000060 -0.000119 13.446889 -0.699740 24.846266 139.999802
[Rope4_Seg06]
47 139.999924 0.000000 0.000060 9.666550 4.125028 31.572639 139.999924
48 139.999924 0.000000 0.000060 7.783293 5.525051 28.485474 139.999924
[Rope4_Seg07]
47 139.999802 0.000000 0.000000 1.192594 4.243492 13.648821 139.999802
48 139.999802 0.000000 0.000000 0.774363 3.817557 11.214046 139.999802
[Rope4_Seg08]
47 139.999924 0.000000 0.000119 -1.702627 2.160559 6.572625 139.999924
48 139.999924 0.000000 0.000119 -1.688783 1.976745 5.644034 139.999924
[Rope4_Seg09]
47 90.185791 0.000060 0.000060 -135.617828 2.228885 0.850567 90.185791
48 90.185791 0.000060 0.000060 -135.617828 2.228885 0.850567 90.185791
[L_rear_hand01]
47 101.696655 -8.392275 -7.654577 -16.056538 -35.751732 113.205307 102.329041
48 101.696655 -8.392275 -7.654577 -12.874918 -36.868465 107.832901 102.329041
[L_rear_hand02]
47 102.726799 -1.568258 5.773216 74.975510 67.539215 162.207245 102.900848
48 102.726799 -1.568258 5.773216 71.484718 71.816513 158.486282 102.900848
[L_rear_hand03]
47 104.552910 9.721220 -10.420293 -175.681885 -24.307653 -110.988518 105.519653
48 104.552910 9.721220 -10.420293 -177.714142 -24.565958 -106.089165 105.519653
